<?xml version="1.0" standalone="no"?>
<!DOCTYPE svg PUBLIC "-//W3C//DTD SVG 20010904//EN"
 "http://www.w3.org/TR/2001/REC-SVG-20010904/DTD/svg10.dtd">
<svg version="1.0" xmlns="http://www.w3.org/2000/svg"
 width="569.000000pt" height="569.000000pt" viewBox="0 0 569.000000 569.000000"
 preserveAspectRatio="xMidYMid meet">
<metadata>
Created by potrace 1.14, written by Peter Selinger 2001-2017
</metadata>
<g transform="translate(0.000000,569.000000) scale(0.100000,-0.100000)"
fill="#000000" stroke="none">
<path d="M2678 4120 c-20 -17 -42 -46 -48 -65 -10 -31 -13 -33 -36 -25 -57 22
-130 5 -85 -19 11 -6 27 -18 36 -27 15 -16 14 -18 -14 -31 -43 -21 -90 -69
-107 -109 -17 -40 -18 -114 -3 -167 9 -35 8 -40 -15 -58 -14 -11 -26 -26 -26
-34 0 -7 -4 -15 -8 -17 -15 -6 -60 -130 -77 -214 -43 -216 -10 -455 90 -639
21 -39 33 -75 34 -104 1 -51 11 -66 54 -80 41 -14 207 -19 207 -7 0 5 3 6 6 3
4 -3 14 -2 24 3 10 5 20 6 24 3 9 -9 46 -11 46 -3 0 7 97 3 118 -5 8 -3 10 0
6 7 -4 6 -3 8 3 5 37 -23 250 -29 319 -9 51 15 67 41 63 107 -2 32 3 49 25 78
33 43 83 166 97 240 5 29 12 66 15 82 10 51 6 227 -6 296 -21 121 -80 268
-117 292 -7 4 -18 17 -24 28 -9 19 -8 20 10 14 11 -3 25 -4 30 -1 9 6 -21 133
-39 167 -15 26 -13 28 19 19 50 -14 55 7 13 58 -50 61 -128 109 -212 131 -69
17 -79 31 -32 45 34 11 28 36 -10 37 -81 3 -147 -3 -197 -18 -53 -15 -115 -45
-136 -64 -27 -27 -35 17 -10 65 29 55 17 60 -37 16z"/>
<path d="M2008 2270 c-47 -3 -89 -8 -93 -11 -3 -4 -6 -78 -6 -165 1 -125 4
-161 15 -170 16 -11 212 -12 223 0 10 10 12 319 2 336 -4 8 -9 12 -9 8 0 -4
-10 -4 -22 0 -13 4 -62 5 -110 2z m53 -102 c4 -69 4 -146 1 -164 -3 -18 -8
-21 -30 -15 -26 7 -27 10 -29 92 -2 103 0 109 32 109 19 0 25 -5 26 -22z"/>
<path d="M1267 2253 c-3 -10 -5 -89 -5 -176 l0 -158 41 3 42 3 3 73 c2 39 6
72 10 72 4 0 23 -35 43 -78 36 -77 36 -77 75 -77 45 1 40 -19 48 211 l5 141
-42 -2 c-23 -2 -45 -3 -49 -4 -4 -1 -8 -29 -10 -63 l-3 -63 -29 60 c-16 33
-31 62 -32 64 -2 2 -23 5 -48 7 -36 3 -46 1 -49 -13z"/>
<path d="M1618 2258 c-2 -7 -4 -87 -3 -177 l1 -164 104 -1 105 -1 0 40 0 40
-50 3 c-69 4 -73 7 -67 37 3 19 10 26 26 24 42 -3 46 1 46 40 0 31 -4 40 -17
40 -44 1 -53 5 -53 23 0 17 7 19 52 17 l53 -3 6 39 c4 22 5 42 4 44 -2 2 -49
5 -103 7 -74 3 -101 1 -104 -8z"/>
<path d="M2244 2245 c-3 -14 -4 -32 0 -40 3 -8 2 -15 -2 -15 -4 0 -6 -21 -4
-47 1 -27 3 -83 4 -126 1 -49 6 -84 14 -91 13 -13 207 -16 220 -4 3 3 7 27 9
52 l4 46 -34 0 c-19 0 -38 1 -42 3 -5 1 -9 -8 -11 -20 -3 -18 -10 -23 -33 -23
-32 0 -30 -10 -32 130 l-2 84 29 1 c21 0 30 -5 32 -18 4 -27 9 -29 51 -30 l38
-1 3 48 c2 26 -2 53 -8 61 -7 9 -43 13 -120 14 -109 0 -110 0 -116 -24z"/>
<path d="M2583 2258 c-4 -7 -8 -84 -8 -171 0 -141 2 -158 18 -163 9 -3 17 -10
17 -15 0 -6 7 -6 18 -1 9 5 50 8 90 7 40 -1 80 4 88 10 13 9 16 41 18 165 2
89 -1 160 -7 168 -6 8 -43 12 -118 12 -75 0 -110 -4 -116 -12z m146 -168 l2
-100 -31 0 -30 0 0 100 0 100 29 0 29 0 1 -100z"/>
<path d="M2916 2263 c-3 -3 -6 -82 -6 -174 0 -124 3 -168 13 -171 18 -7 169
-2 194 6 29 9 34 32 39 168 4 111 3 118 -18 140 -15 15 -35 24 -58 24 -19 1
-62 4 -96 7 -34 4 -64 4 -68 0z m119 -94 c4 -6 13 -8 20 -5 10 3 13 -15 13
-79 1 -80 0 -83 -24 -89 -14 -4 -28 -5 -32 -2 -6 3 -9 172 -3 184 3 6 21 1 26
-9z"/>
<path d="M3243 2095 c0 -96 3 -175 6 -176 33 -6 201 -4 202 3 1 4 2 15 2 23 0
51 -1 52 -55 54 -60 2 -73 10 -63 40 5 16 13 20 35 17 31 -4 36 3 35 49 0 26
-4 31 -35 36 -19 4 -30 7 -25 8 6 1 3 5 -5 11 -13 8 -13 10 0 14 8 3 35 7 60
8 43 3 45 4 47 37 2 19 -1 37 -6 41 -6 3 -52 7 -104 8 l-94 2 0 -175z"/>
<path d="M3540 2090 l0 -176 42 5 c28 4 43 11 44 21 1 8 2 39 3 68 2 81 14 71
70 -62 17 -38 24 -46 34 -37 8 6 23 9 35 6 12 -2 23 1 23 8 4 42 9 147 11 237
l3 105 -36 1 c-53 2 -60 -6 -61 -69 -1 -31 -5 -54 -9 -51 -5 2 -20 31 -34 63
l-27 58 -48 0 -49 0 -1 -177z"/>
<path d="M3899 2263 c-5 -25 -3 -343 1 -344 3 -1 52 -3 109 -5 l103 -3 -6 42
c-4 23 -8 42 -9 43 -1 1 -26 4 -55 6 -29 1 -52 6 -52 11 0 4 0 16 0 27 0 22
38 28 56 10 7 -7 11 6 13 40 l2 50 -36 0 c-28 0 -35 4 -35 20 0 18 7 20 55 20
l55 0 0 39 c0 32 -4 40 -22 44 -38 8 -178 9 -179 0z"/>
<path d="M4220 2241 l-35 -29 17 -34 c10 -18 25 -45 34 -59 19 -29 14 -68 -11
-93 -8 -8 -15 -21 -15 -30 0 -8 -4 -18 -10 -21 -19 -12 -10 -33 22 -48 39 -19
51 -15 71 28 9 19 21 35 25 35 5 0 17 -16 28 -35 20 -38 26 -40 72 -24 33 11
35 23 9 62 -9 15 -17 29 -17 33 0 3 -9 18 -20 34 l-19 27 28 45 c50 79 49 91
-6 120 -36 18 -39 17 -60 -32 l-14 -35 -17 22 c-9 12 -24 31 -32 42 -15 21
-15 20 -50 -8z"/>
<path d="M4050 1896 c0 -2 7 -7 16 -10 8 -3 12 -2 9 4 -6 10 -25 14 -25 6z"/>
<path d="M3709 1888 c-5 -9 -5 -127 0 -122 3 3 6 32 7 65 0 51 -2 67 -7 57z"/>
<path d="M1520 1791 c0 -5 5 -13 10 -16 6 -3 10 -2 10 4 0 5 -4 13 -10 16 -5
3 -10 2 -10 -4z"/>
<path d="M1885 1790 c-3 -5 -1 -10 4 -10 6 0 11 5 11 10 0 6 -2 10 -4 10 -3 0
-8 -4 -11 -10z"/>
<path d="M2615 1739 c-4 -6 -5 -12 -2 -15 2 -3 7 2 10 11 7 17 1 20 -8 4z"/>
<path d="M1525 1702 c-3 -8 -3 -17 0 -20 3 -3 5 0 5 7 0 21 24 6 31 -20 7 -24
7 -24 8 3 1 17 8 28 19 30 9 3 0 6 -20 9 -27 4 -39 1 -43 -9z"/>
<path d="M3315 1709 c-16 -4 -22 -7 -12 -8 13 -1 17 -10 17 -41 0 -32 4 -40
18 -39 10 0 12 3 5 6 -10 3 -10 10 -2 25 8 15 8 19 0 14 -6 -4 -11 -3 -11 3 0
5 7 14 15 18 24 14 2 29 -30 22z"/>
<path d="M4430 1711 c-21 -9 -20 -81 2 -95 20 -12 58 16 58 44 0 23 -42 59
-60 51z m45 -42 c8 -24 -19 -54 -32 -36 -8 11 -9 18 -5 54 3 18 30 4 37 -18z"/>
<path d="M790 1690 c-14 -27 -9 -72 8 -78 11 -3 12 0 4 14 -11 22 -8 52 7 67
15 15 37 -13 34 -45 -1 -16 2 -28 6 -28 5 0 8 16 6 36 -3 52 -44 73 -65 34z"/>
<path d="M931 1696 c-18 -21 -22 -56 -7 -56 9 0 12 9 8 25 -3 16 1 27 11 31
23 8 36 -3 30 -26 -3 -11 -9 -17 -14 -14 -5 3 -9 0 -9 -5 0 -6 7 -11 16 -11 9
0 12 -5 8 -12 -4 -7 -3 -8 5 -4 13 9 12 54 -2 74 -12 16 -32 15 -46 -2z"/>
<path d="M1051 1692 c-1 -13 6 -37 15 -54 l16 -31 20 32 c11 17 18 34 15 38
-4 3 -12 -6 -18 -20 -7 -15 -16 -24 -21 -21 -4 3 -6 10 -3 15 4 5 1 9 -5 9 -6
0 -9 3 -7 8 3 4 1 16 -4 27 -7 19 -8 19 -8 -3z"/>
<path d="M1110 1700 c0 -5 5 -10 11 -10 5 0 7 5 4 10 -3 6 -8 10 -11 10 -2 0
-4 -4 -4 -10z"/>
<path d="M1180 1667 c0 -26 4 -47 9 -47 10 0 8 76 -2 86 -4 4 -7 -14 -7 -39z"/>
<path d="M1278 1698 c-24 -19 -26 -51 -4 -70 23 -22 40 -23 56 -3 17 20 6 46
-16 38 -16 -6 -16 -7 0 -13 16 -5 16 -7 2 -19 -13 -11 -19 -11 -31 -1 -34 28
-6 77 37 65 18 -5 20 -4 8 4 -20 14 -33 14 -52 -1z"/>
<path d="M1410 1691 c-5 -11 -10 -32 -10 -46 0 -24 2 -25 15 -11 18 18 44 11
46 -13 1 -9 5 0 8 19 8 40 -6 70 -31 70 -10 0 -22 -9 -28 -19z m45 -15 c0 -11
-8 -20 -17 -22 -22 -3 -30 9 -22 31 9 22 39 15 39 -9z"/>
<path d="M1667 1703 c-4 -3 -7 -23 -7 -44 0 -38 23 -60 43 -40 6 6 2 9 -9 8
-11 -1 -20 6 -22 17 -2 11 0 16 7 12 6 -4 11 -2 11 3 0 6 -4 11 -10 11 -19 0
-10 21 13 30 21 8 21 9 1 9 -11 1 -24 -2 -27 -6z"/>
<path d="M1873 1698 c12 -9 16 -23 13 -45 -2 -18 1 -33 5 -33 5 0 9 18 9 39 0
22 5 42 13 44 6 3 -3 6 -22 6 -30 1 -33 -1 -18 -11z"/>
<path d="M1996 1694 c-23 -23 -20 -51 8 -69 32 -21 66 -5 66 31 0 47 -43 69
-74 38z m52 -6 c16 -16 15 -55 0 -61 -22 -8 -58 11 -58 31 0 20 18 42 35 42 6
0 16 -5 23 -12z"/>
<path d="M2219 1698 c0 -7 -2 -21 -4 -31 -3 -14 1 -18 16 -14 10 3 19 1 19 -5
0 -5 5 -6 11 -2 8 4 7 9 -2 15 -7 4 -16 6 -20 3 -13 -7 -18 11 -8 26 7 12 11
13 18 2 7 -11 9 -11 14 2 5 12 0 16 -18 16 -14 0 -25 -6 -26 -12z"/>
<path d="M2479 1701 c7 -5 18 -15 23 -22 8 -11 9 -10 4 3 -3 12 2 18 17 21 12
2 4 5 -18 5 -26 1 -35 -1 -26 -7z"/>
<path d="M2601 1688 c-6 -15 -4 -32 5 -50 16 -31 35 -36 53 -14 13 16 18 72 8
83 -4 3 -7 -12 -7 -35 0 -23 -4 -42 -10 -42 -5 0 -13 0 -17 -1 -13 -1 -20 45
-11 64 6 11 5 17 -2 17 -6 0 -14 -10 -19 -22z"/>
<path d="M2739 1708 c-1 -2 -2 -18 -3 -36 -2 -26 1 -31 15 -27 10 4 21 -1 27
-11 7 -13 11 -9 16 21 7 37 -2 55 -29 55 -5 -1 -2 -5 8 -11 23 -14 22 -39 -3
-39 -19 0 -24 10 -21 38 2 10 -6 17 -10 10z"/>
<path d="M2869 1708 c-1 -2 -3 -22 -4 -45 -2 -35 2 -44 18 -49 10 -3 24 -1 29
4 8 8 5 9 -9 6 -13 -4 -22 0 -26 10 -7 17 8 30 23 21 6 -3 10 -2 10 3 0 5 -10
12 -22 16 -25 6 -16 21 17 29 15 4 13 5 -7 6 -16 0 -29 0 -29 -1z"/>
<path d="M3109 1708 c-1 -2 -3 -16 -4 -33 -1 -16 -5 -37 -9 -45 -6 -15 3 -17
57 -11 4 1 6 22 5 49 -1 39 -2 41 -5 12 -6 -54 -11 -64 -27 -51 -7 6 -12 27
-11 46 1 30 -1 42 -6 33z"/>
<path d="M3220 1690 c0 -11 4 -20 9 -20 5 0 7 9 4 20 -3 11 -7 20 -9 20 -2 0
-4 -9 -4 -20z"/>
<path d="M3427 1683 c-7 -35 -5 -65 2 -57 3 3 6 11 6 17 0 7 10 13 22 15 16 2
22 -3 25 -20 3 -19 5 -18 9 9 5 30 4 31 -27 26 -30 -5 -32 -3 -27 16 3 11 3
21 0 21 -3 0 -8 -12 -10 -27z"/>
<path d="M3640 1688 c-11 -22 -11 -22 5 -3 23 29 50 9 48 -37 -1 -21 3 -35 10
-35 16 0 9 79 -7 89 -21 14 -45 8 -56 -14z"/>
<path d="M3770 1701 c0 -4 11 -6 25 -3 14 2 25 6 25 8 0 2 -11 4 -25 4 -14 0
-25 -4 -25 -9z"/>
<path d="M3896 1691 c-13 -14 -14 -24 -7 -43 13 -33 38 -42 67 -23 29 19 31
46 6 68 -24 22 -45 21 -66 -2z m68 -13 c15 -24 -19 -61 -44 -48 -26 14 -31 37
-13 55 19 19 42 16 57 -7z"/>
<path d="M4126 1689 c-28 -40 13 -87 59 -67 19 8 19 8 -1 5 -28 -6 -54 10 -54
32 0 24 19 39 47 36 12 -1 20 2 17 7 -10 16 -53 8 -68 -13z"/>
<path d="M4272 1698 c-27 -27 -3 -88 34 -88 17 0 54 35 54 53 0 6 -11 -1 -24
-18 -21 -25 -28 -28 -43 -19 -24 15 -28 47 -8 64 13 11 21 11 36 2 27 -17 38
-14 15 3 -24 18 -48 19 -64 3z"/>
<path d="M4557 1703 c-10 -9 -9 -83 1 -84 32 -6 51 -5 46 2 -2 4 -11 6 -18 3
-7 -3 -16 2 -20 11 -4 10 2 19 17 25 l22 9 -22 0 c-29 1 -20 28 10 34 19 4 18
4 -4 6 -14 0 -29 -2 -32 -6z"/>
<path d="M4682 1698 c-7 -7 -12 -30 -12 -52 0 -28 3 -37 9 -27 5 8 7 24 5 36
-2 13 3 28 11 35 23 19 43 -3 37 -40 -2 -17 0 -30 6 -30 11 0 10 60 -2 79 -9
15 -39 14 -54 -1z"/>
<path d="M4802 1663 c3 -42 5 -47 31 -50 15 -2 27 1 27 7 0 6 -4 8 -10 5 -5
-3 -17 -2 -26 3 -11 6 -13 11 -5 16 6 4 8 18 5 31 -5 19 -1 24 18 28 18 3 15
5 -10 6 l-32 1 2 -47z"/>
<path d="M4930 1702 c0 -7 5 -12 10 -12 6 0 10 -9 10 -19 0 -11 -4 -23 -10
-26 -5 -3 -10 -14 -9 -23 0 -13 3 -12 11 6 13 26 26 28 34 7 4 -8 10 -15 16
-15 5 0 2 10 -6 22 -11 15 -12 26 -5 40 6 12 6 18 -1 18 -5 0 -10 -5 -10 -12
0 -6 -9 -3 -20 7 -11 10 -20 13 -20 7z"/>
<path d="M510 1673 c0 -18 2 -33 4 -33 9 0 13 39 5 51 -6 10 -9 4 -9 -18z"/>
<path d="M2333 1685 c0 -8 4 -15 9 -15 4 0 8 7 8 15 0 8 -4 15 -8 15 -5 0 -9
-7 -9 -15z"/>
<path d="M2394 1675 c0 -14 4 -25 8 -25 4 0 8 11 8 25 0 14 -4 25 -8 25 -4 0
-8 -11 -8 -25z"/>
<path d="M3060 1660 c0 -22 3 -40 8 -40 4 0 6 18 4 40 -2 22 -6 40 -8 40 -2 0
-4 -18 -4 -40z"/>
<path d="M416 1669 c-17 -17 -17 -19 -2 -25 9 -3 16 -14 16 -23 0 -13 2 -14 9
-2 7 10 4 19 -7 28 -16 11 -16 12 1 13 9 0 17 4 17 9 0 18 -15 18 -34 0z"/>
<path d="M5260 1680 c0 -6 7 -13 15 -16 12 -5 13 -10 5 -19 -9 -11 -7 -12 9
-8 28 7 26 17 -4 37 -14 9 -25 12 -25 6z"/>
<path d="M3766 1655 c3 -32 5 -34 34 -40 12 -2 19 -1 16 3 -4 4 -13 7 -19 7
-7 0 -12 7 -12 15 0 8 8 14 18 14 9 -1 17 2 17 7 0 5 -6 9 -14 9 -8 0 -21 3
-29 6 -11 4 -14 -2 -11 -21z"/>
<path d="M5160 1670 c0 -14 15 -19 29 -11 9 6 7 10 -8 14 -12 3 -21 1 -21 -3z"/>
<path d="M586 1661 c-4 -5 3 -7 14 -4 23 6 26 13 6 13 -8 0 -17 -4 -20 -9z"/>
<path d="M688 1663 c6 -2 18 -2 25 0 6 3 1 5 -13 5 -14 0 -19 -2 -12 -5z"/>
<path d="M5070 1660 c0 -5 7 -7 15 -4 8 4 15 8 15 10 0 2 -7 4 -15 4 -8 0 -15
-4 -15 -10z"/>
<path d="M2330 1653 c0 -15 15 -31 30 -33 27 -4 40 0 40 12 0 9 -3 9 -12 0
-13 -13 -52 3 -43 19 4 5 1 9 -4 9 -6 0 -11 -3 -11 -7z"/>
<path d="M2496 1645 c4 -8 8 -15 10 -15 2 0 4 7 4 15 0 8 -4 15 -10 15 -5 0
-7 -7 -4 -15z"/>
<path d="M3220 1639 c0 -11 4 -18 10 -14 5 3 7 12 3 20 -7 21 -13 19 -13 -6z"/>
<path d="M1555 1631 c-3 -5 -1 -12 5 -16 5 -3 10 1 10 9 0 18 -6 21 -15 7z"/>
<path d="M2210 1629 c0 -5 5 -7 10 -4 6 3 10 8 10 11 0 2 -4 4 -10 4 -5 0 -10
-5 -10 -11z"/>
<path d="M3630 1630 c0 -5 5 -10 11 -10 5 0 7 5 4 10 -3 6 -8 10 -11 10 -2 0
-4 -4 -4 -10z"/>
</g>
</svg>
